inDegrees=no
nColumns=24
nRows=11
DataType=double
version=3
OpenSimVersion=4.5
endheader
time	pelvis_tilt	pelvis_list	pelvis_rotation	pelvis_tz	pelvis_ty	pelvis_tx	hip_flexion_r	hip_adduction_r	hip_rotation_r	knee_angle_r	ankle_angle_r	subtalar_angle_r	mtp_angle_r	hip_flexion_l	hip_adduction_l	hip_rotation_l	knee_angle_l	ankle_angle_l	subtalar_angle_l	mtp_angle_l	lumbar_extension	lumbar_bending	lumbar_rotation
0	-0.06520708583491808	0.05379723385110102	0.09025668294940313	0	0.81816066	-0	0.5867632172160914	-0.03401187341477823	-0.1813555711835188	-0.2210069657418434	0.1119273343429376	0.04745435637853897	0	-0.3405078903856324	0.1328688164241097	-0.07150685940252413	-0.02930222564851672	0.280746548815645	0.121921766653074	0	-0.01883185007987605	-0.04421373950277754	-0.1457283444078727
0.01000000000000001	-0.06404535903027773	0.04779467240590043	0.09312138234701042	-0.000349350000000026	0.81682426	0.01488294	0.5820444705248404	-0.02798569482127182	-0.1937535482428554	-0.243008296742361	0.05716736028091072	0.01485177891341376	0	-0.3407375322564965	0.1208634843412651	-0.0839385616335299	-0.06575711740058872	0.2784765229759529	0.1493997268689835	0	-0.01609120982095182	-0.03407315663720473	-0.1463195240774375
0.01999999999999991	-0.07254724392487114	0.03629725317482493	0.08500281144671699	0.0003408399999999534	0.81576288	0.0295182	0.5928244900175323	-0.009888491871737876	-0.1694906592165775	-0.2579349684321096	-0.003317002083139578	-0.03401554349312932	0	-0.3313415124348781	0.1078192485118293	-0.09870637921434844	-0.09616932672574743	0.2649368681079557	0.1657921662071297	0	-0.001876883444363402	-0.01887088908098589	-0.1317261935196591
0.02999999999999992	-0.07935539420926876	0.0252990359314646	0.07715454968594627	0.001345609999999997	0.8154819600000001	0.04393294	0.599342704677911	0.008224587814402688	-0.1410953769841659	-0.2749985364349983	-0.06280225490567592	-0.0771672216972015	0	-0.3193776118504819	0.09450786176604191	-0.1082087096586997	-0.1342705352013481	0.2466707284569359	0.1668879533756359	0	0.009547424341702122	-0.004524586665948195	-0.1205014712894091
0.03999999999999992	-0.08217718460322	0.01230057453857263	0.07016953799463245	0.00232829999999995	0.81593468	0.05888821	0.6001775593636575	0.0259980697122706	-0.1280451201178766	-0.3027711010727945	-0.0894349841043699	-0.1291352841845988	0	-0.3104915058523299	0.07773128854950118	-0.1204981839617629	-0.1742058756303504	0.2178469057594383	0.1711700638920655	0	0.01762956257134724	0.01245625918811425	-0.1123185127192591
0.04999999999999993	-0.07942161544160006	0.001163561702947873	0.06022840729035248	0.002812099999999984	0.81738084	0.07367659	0.5955619537772179	0.03822057957165913	-0.1387728240643716	-0.3319961761870561	-0.09287582654818352	-0.1370026182854827	0	-0.3057698048422541	0.06498709105004528	-0.127021360767738	-0.2160087124248672	0.1835725519293868	0.1681480529957749	0	0.01773169190879109	0.02943016177334641	-0.09685902394840197
0.05999999999999994	-0.07638274556219823	-0.01101558373894174	0.04971352181420094	0.003573439999999983	0.81931095	0.08872845	0.5870792410166903	0.05397752655226287	-0.1354205045456862	-0.3544690344140046	-0.09363712415807186	-0.1388827916754862	0	-0.2981180040686928	0.05018703811060702	-0.1376117436049495	-0.261526363500799	0.1368095387935199	0.1668819023191193	0	0.01797017422138237	0.04726407726736096	-0.08680502372542795
0.06999999999999995	-0.07171192266743588	-0.02507031970770988	0.04040571376710563	0.004882749999999991	0.82177543	0.10446748	0.5736550217018211	0.07462250319892696	-0.1210645743708957	-0.3741142012930589	-0.08103949871106676	-0.1434084293787099	0	-0.2921373192274688	0.03090580152759211	-0.1515962801067532	-0.3047900708988982	0.07632651108274863	0.1813126036207957	0	0.01858159203082156	0.06588732542050572	-0.08198159637443261
0.07999999999999996	-0.05869553022543936	-0.03690311268044687	0.03405101435415928	0.006620009999999954	0.8248922	0.11935994	0.5502494082099268	0.09415275480750311	-0.1091431982101256	-0.391832068274312	-0.06623480197408772	-0.152617885371529	0	-0.2861603025447338	0.00909661155549852	-0.1649465999121648	-0.3622204920915914	0.01632187724728437	0.2186271972639773	0	0.006411991827707244	0.07980621240969328	-0.07525981017529269
0.08999999999999997	-0.05067669311066627	-0.0438375015033783	0.02866065206734931	0.007570189999999977	0.82756131	0.13366807	0.5328852978259703	0.1054400565162151	-0.1061550067332838	-0.4113608796371894	-0.04578140121823586	-0.1582922706886145	0	-0.2705830056201634	-0.004902358993752162	-0.1646359595796437	-0.4260406048656061	-0.04003368083117302	0.2186999577715649	0	-0.001319368034476948	0.08936013565939813	-0.06829018216091476
0.09999999999999998	-0.04291374149794947	-0.05012757289314543	0.02418156576533185	0.008544849999999993	0.8303792800000001	0.14788549	0.5133832366009394	0.1160328850833074	-0.1015625258867684	-0.4268697521501658	-0.02481786445850387	-0.1635626801771712	0	-0.2526329292141837	-0.01894937461758589	-0.1660899696430024	-0.4922533950962337	-0.08355613800326936	0.2169748546166732	0	-0.008749266076143344	0.09766447419957559	-0.06322225023874413
